<?xml version="1.0" encoding="UTF-8"?><svg id="Layer_2" xmlns="http://www.w3.org/2000/svg" width="1079" height="1079.189" viewBox="0 0 1079 1079.189"><g id="Layer_1-2"><rect width="1079" height="1079.189" fill="#f8f8f8"/><g id="Soccer"><path d="M221.472,482.11c-3.446,0-6.542-2.453-7.185-6.017-17.875-99.537-111.862-233.304-112.797-234.648-2.337-3.271-1.577-7.827,1.752-10.164,3.271-2.337,7.827-1.577,10.164,1.752,3.972,5.549,96.85,137.681,115.25,240.489.701,3.972-1.928,7.769-5.9,8.47-.409,0-.876.117-1.285.117Z"/><path d="M371.478,380.295c-2.044,0-4.147-.876-5.549-2.57-74.361-87.387-105.846-196.562-107.189-201.177-1.11-3.855,1.168-7.886,5.024-8.996,3.855-1.11,7.886,1.168,8.996,5.024.292,1.11,32.011,110.811,104.21,195.686,2.629,3.096,2.22,7.652-.818,10.281-1.402,1.168-3.037,1.752-4.731,1.752h.058Z"/><path d="M311.604,675.284c-1.344,0-2.629-.35-3.797-1.11-2.512-1.519-61.51-38.144-84.7-82.246-16.998-32.244-28.623-79.092-17.991-106.138,3.914-9.989,10.748-16.94,19.744-20.153,14.779-5.199,28.447-6.776,41.649-8.295,14.545-1.636,28.331-3.213,41.883-9.697,1.694-.935,25.468-13.902,34.581-29.44,3.213-5.491,6.951-14.72,10.865-24.475,11.916-29.44,20.036-47.373,32.945-48.367,4.965-.409,13.26,1.285,27.046,4.031,31.018,6.309,83.006,16.823,141.478,11.508,46.556-4.206,83.239-12.325,109.993-18.225,22.197-4.907,36.801-8.178,46.673-7.068,11.741,1.344,23.658,8.996,31.894,20.562,11.391,15.947,14.837,37.385,9.697,60.283-8.236,36.976-46.205,63.379-66.65,77.573-5.082,3.563-9.521,6.601-11.332,8.412-4.089,3.972-4.264,8.879-4.439,13.552-.175,4.439-.35,10.514-6.017,13.318-4.615,2.337-38.436,16.122-42.584,17.407-2.629.818-7.769,2.395-18.225-11.741l-25.819,9.872.117,14.896c0,2.921-1.694,5.549-4.323,6.718l-37.385,16.531c-2.278.993-4.848.818-6.951-.526-8.996-5.841-25.176-13.61-31.368-11.8-11.8,3.446-47.081,20.211-52.689,23.774-1.694,2.745-3.914,13.552-4.79,23.658-.234,2.745-1.986,5.082-4.498,6.133l-39.079,16.005c-2.453.993-5.257.584-7.302-1.051-4.206-3.388-9.463-7.302-12.267-9.113-6.776,2.57-24.475,10.281-30.434,13.727.058,1.577.292,3.738.467,5.024.409,3.797.643,5.9-.234,8.119-1.285,3.154-1.694,4.206-33.121,17.641-.935.409-1.869.584-2.862.584l-.175.117h0ZM388.359,359.967h-.526c-5.374,1.811-15.655,27.104-20.562,39.312-4.147,10.281-8.061,19.977-11.8,26.345-11.508,19.685-39.254,34.406-40.481,35.048-.058,0-.117,0-.234.117-15.83,7.652-31.543,9.405-46.673,11.157-12.384,1.402-25.235,2.862-38.436,7.535-5.024,1.752-8.587,5.608-10.982,11.683-7.827,19.919-.35,60.341,17.349,93.988,18.4,35.048,63.905,66.475,76.288,74.594,8.061-3.505,16.531-7.243,21.029-9.463-.643-5.608-.935-9.872.584-13.26,3.563-7.827,43.577-21.905,43.927-21.905,2.395-.175,4.439-.35,17.991,10.164l31.076-12.734c1.811-16.064,5.14-25.994,9.872-29.44,6.25-4.556,45.212-22.664,57.596-26.286,12.559-3.68,31.66,6.425,40.013,11.449l29.499-13.026-.117-15.188c0-3.037,1.869-5.783,4.673-6.893l35.866-13.669c3.213-1.227,6.834,0,8.704,2.804,2.453,3.738,5.666,7.769,7.652,9.755,7.535-2.862,28.331-11.391,35.691-14.603v-1.752c.234-5.783.526-15.421,8.82-23.541,2.687-2.57,7.068-5.666,13.143-9.93,18.809-13.085,53.741-37.385,60.75-68.811,4.206-18.809,1.577-36.1-7.36-48.659-5.783-8.119-14.078-13.727-21.672-14.545-7.36-.818-22.606,2.512-41.883,6.776-27.162,6.017-64.372,14.253-111.862,18.517-60.633,5.432-113.848-5.316-145.684-11.741-9.697-1.986-18.926-3.855-22.431-3.855h.117l.058.058Z"/><path d="M263.237,637.782c-2.862,0-5.549-1.694-6.718-4.439-1.577-3.738.175-8.003,3.914-9.58,2.979-1.227,296.858-125.356,363.041-162.565,66.708-37.502,75.354-50.82,81.604-76.814.935-3.914,4.907-6.309,8.82-5.374,3.914.935,6.309,4.907,5.374,8.82-7.711,32.069-20.912,48.133-88.614,86.16-66.884,37.618-352.41,158.184-364.501,163.325-.935.409-1.869.584-2.862.584v-.117h-.058Z"/><path d="M455.126,414.759c-.759,0-1.519-.117-2.337-.35-3.797-1.285-5.9-5.432-4.615-9.229l13.727-41.24c1.285-3.797,5.374-5.9,9.229-4.615,3.797,1.285,5.9,5.432,4.615,9.229l-13.727,41.24c-.993,3.037-3.855,4.965-6.951,4.965h.058Z"/><path d="M493.796,420.6c-.584,0-1.227,0-1.811-.234-3.914-.993-6.25-4.965-5.257-8.879l11.391-43.985c.993-3.914,5.024-6.25,8.879-5.257,3.914.993,6.25,4.965,5.257,8.879l-11.391,43.985c-.876,3.271-3.797,5.491-7.068,5.491h0Z"/><path d="M537.606,417.563c-.643,0-1.344-.117-1.986-.292-3.855-1.11-6.133-5.14-5.024-8.996l11.566-40.948c1.11-3.855,5.14-6.133,8.996-5.024s6.133,5.14,5.024,8.996l-11.566,40.948c-.935,3.213-3.855,5.316-7.01,5.316Z"/><path d="M241.215,500.393s.701,36.976,18.108,69.98c0,0,21.847-24.767,47.432-34.347,25.585-9.58,63.671-11.099,64.781-87.504,0,0-26.169,34.114-62.327,45.972-36.158,11.858-67.935,5.958-67.935,5.958h0l-.058-.058Z" fill="#FDC656"/><path d="M187.825,383.741c-3.563,0-6.718-2.629-7.243-6.25-.584-3.972,2.22-7.711,6.192-8.295.876-.117,89.607-13.552,129.678-70.33,2.337-3.271,6.893-4.089,10.164-1.752,3.271,2.337,4.089,6.893,1.752,10.164-43.693,61.977-135.637,75.821-139.492,76.347h-1.051v.117Z"/><path d="M800.585,428.486c-.701,0-1.343-.117-2.045-.292-3.855-1.11-6.075-5.199-4.965-9.054l28.214-96.441c1.11-3.855,5.199-6.075,9.054-4.965s6.075,5.199,4.965,9.054l-28.214,96.441c-.935,3.213-3.855,5.257-7.01,5.257h0Z"/><path d="M839.897,467.799c-1.869,0-3.738-.701-5.14-2.103-2.862-2.862-2.862-7.477,0-10.339l70.096-70.739c2.862-2.862,7.477-2.862,10.339,0,2.862,2.862,2.862,7.477,0,10.339l-70.096,70.739c-1.402,1.46-3.33,2.161-5.199,2.161h0v-.058Z"/><path d="M874.945,504.891c-3.096,0-5.958-1.986-6.951-5.082-1.227-3.855.876-7.944,4.731-9.171l96.616-31.134c3.855-1.227,7.944.876,9.171,4.731,1.227,3.855-.876,7.944-4.731,9.171l-96.616,31.134c-.759.234-1.519.35-2.22.35h0Z"/><path d="M652.214,911.918c-126.816,0-230.033-103.159-230.033-230.033,0-1.869,0-3.797.058-5.666.117-4.031,3.446-7.243,7.477-7.126,4.031.117,7.243,3.446,7.126,7.477,0,1.752-.058,3.505-.058,5.257,0,118.755,96.616,215.43,215.43,215.43s215.43-96.616,215.43-215.43c0-84.525-49.827-161.631-126.875-196.445-3.68-1.636-5.316-5.958-3.622-9.638,1.636-3.68,6.017-5.316,9.638-3.622,82.305,37.151,135.52,119.456,135.52,209.764,0,126.816-103.159,230.033-230.033,230.033h-.058Z"/><path d="M524.639,760.626c-1.285,0-2.512-.35-3.622-.993l-64.664-37.326c-2.278-1.285-3.622-3.738-3.622-6.309v-74.653c0-2.629,1.402-5.024,3.622-6.309l64.664-37.326c2.278-1.285,5.024-1.285,7.302,0l64.664,37.326c2.278,1.285,3.622,3.738,3.622,6.309v74.653c0,2.629-1.402,5.024-3.622,6.309l-64.664,37.326c-1.11.643-2.395.993-3.622.993h-.058ZM467.335,711.793l57.362,33.121,57.362-33.121v-66.183l-57.362-33.121-57.362,33.121v66.183Z"/><path d="M653.908,760.626c-1.285,0-2.512-.35-3.622-.993l-64.664-37.326c-2.278-1.285-3.622-3.738-3.622-6.309v-74.653c0-2.629,1.402-5.024,3.622-6.309l64.664-37.326c2.278-1.285,5.024-1.285,7.302,0l64.664,37.326c2.278,1.285,3.622,3.738,3.622,6.309v74.653c0,2.629-1.402,5.024-3.622,6.309l-64.664,37.326c-1.11.643-2.395.993-3.622.993h-.058ZM596.604,711.793l57.362,33.121,57.362-33.121v-66.183l-57.362-33.121-57.362,33.121v66.183Z"/><path d="M783.177,760.626c-1.285,0-2.512-.35-3.622-.993l-64.664-37.326c-2.278-1.285-3.622-3.738-3.622-6.309v-74.653c0-2.629,1.402-5.024,3.622-6.309l64.664-37.326c2.278-1.285,5.024-1.285,7.302,0l64.664,37.326c2.278,1.285,3.622,3.738,3.622,6.309v74.653c0,2.629-1.402,5.024-3.622,6.309l-64.664,37.326c-1.11.643-2.395.993-3.622.993h-.058ZM725.874,711.793l57.362,33.121,57.362-33.121v-66.183l-57.362-33.121-57.362,33.121v66.183Z"/><path d="M869.98,736.093c-1.227,0-2.512-.292-3.622-.993l-22.139-12.793c-2.278-1.285-3.622-3.738-3.622-6.309v-74.653c0-2.629,1.402-5.024,3.622-6.309l20.795-12.033c3.505-1.986,7.944-.818,9.989,2.687s.818,7.944-2.687,9.989l-17.174,9.93v66.241l18.517,10.69c3.505,2.045,4.673,6.484,2.687,9.989-1.343,2.337-3.797,3.622-6.309,3.622h-.058v-.058Z"/><path d="M498.528,850.35c-2.512,0-4.965-1.285-6.309-3.622-2.044-3.505-.818-7.944,2.687-9.989l22.489-12.968v-66.241l-57.304-33.121-21.496,12.384c-3.505,1.986-7.944.818-9.989-2.687-1.986-3.505-.818-7.944,2.687-9.989l25.118-14.487c2.278-1.285,5.024-1.285,7.302,0l64.606,37.326c2.278,1.285,3.622,3.738,3.622,6.309v74.653c0,2.629-1.402,5.024-3.622,6.309l-26.111,15.071c-1.168.643-2.395.993-3.622.993h0l-.058.058Z"/><path d="M589.303,872.605c-1.285,0-2.512-.35-3.622-.993l-64.664-37.326c-2.278-1.285-3.622-3.738-3.622-6.309v-74.653c0-2.629,1.402-5.024,3.622-6.309l64.664-37.326c2.278-1.285,5.024-1.285,7.302,0l64.664,37.326c2.278,1.285,3.622,3.738,3.622,6.309v74.653c0,2.629-1.402,5.024-3.622,6.309l-64.664,37.326c-1.11.643-2.395.993-3.622.993h-.058ZM531.94,823.772l57.362,33.121,57.362-33.121v-66.183l-57.362-33.121-57.362,33.121v66.183Z"/><path d="M718.572,872.605c-1.285,0-2.512-.35-3.622-.993l-64.664-37.326c-2.278-1.285-3.622-3.738-3.622-6.309v-74.653c0-2.629,1.402-5.024,3.622-6.309l64.664-37.326c2.278-1.285,5.024-1.285,7.302,0l64.664,37.326c2.278,1.285,3.622,3.738,3.622,6.309v74.653c0,2.629-1.402,5.024-3.622,6.309l-64.664,37.326c-1.11.643-2.395.993-3.622.993h-.058ZM661.21,823.772l57.362,33.121,57.362-33.121v-66.183l-57.362-33.121-57.362,33.121v66.183h0Z"/><path d="M807.185,849.123c-1.227,0-2.512-.292-3.622-.993l-24.008-13.844c-2.278-1.285-3.68-3.738-3.68-6.309v-74.653c0-2.629,1.402-5.024,3.622-6.309l64.664-37.326c2.278-1.285,5.024-1.285,7.302,0l22.139,12.793c3.505,2.045,4.673,6.484,2.687,9.989-2.045,3.505-6.484,4.673-9.989,2.687l-18.459-10.69-57.362,33.121v66.241l20.328,11.741c3.505,2.045,4.673,6.484,2.687,9.989-1.343,2.337-3.797,3.68-6.309,3.68v-.117h0Z"/><path d="M589.303,902.864c-4.031,0-7.302-3.271-7.302-7.302v-30.258c0-4.031,3.271-7.302,7.302-7.302s7.302,3.271,7.302,7.302v30.258c0,4.031-3.271,7.302-7.302,7.302Z"/><path d="M718.572,901.871c-4.031,0-7.302-3.271-7.302-7.302v-29.265c0-4.031,3.271-7.302,7.302-7.302s7.302,3.271,7.302,7.302v29.265c0,4.031-3.271,7.302-7.302,7.302Z"/><path d="M653.908,611.321c-4.031,0-7.302-3.271-7.302-7.302v-48.6c0-4.031,3.271-7.302,7.302-7.302s7.302,3.271,7.302,7.302v48.6c0,4.031-3.271,7.302-7.302,7.302h0Z"/><path d="M783.177,611.321c-4.031,0-7.302-3.271-7.302-7.302v-72.316c0-2.337,1.11-4.556,3.038-5.958l19.51-13.961c3.271-2.337,7.827-1.577,10.164,1.694,2.337,3.271,1.577,7.827-1.694,10.164l-16.473,11.8v68.578c0,4.031-3.271,7.302-7.302,7.302h.058Z"/></g></g></svg>